<?xml version="1.0" encoding="utf-8"?>
<!-- Generator: Adobe Illustrator 27.5.0, SVG Export Plug-In . SVG Version: 6.00 Build 0)  -->
<svg version="1.1" id="Layer_1" xmlns="http://www.w3.org/2000/svg" xmlns:xlink="http://www.w3.org/1999/xlink" x="0px" y="0px"
	 viewBox="0 0 1080 1080" style="enable-background:new 0 0 1080 1080;" xml:space="preserve">
<style type="text/css">
	.st0{fill-rule:evenodd;clip-rule:evenodd;fill:#E51D30;}
	.st1{fill-rule:evenodd;clip-rule:evenodd;fill:#262626;}
	.st2{enable-background:new    ;}
	.st3{fill:#262626;}
	.st4{fill:#E51D30;}
</style>
<g id="Group_6166" transform="translate(-723 -456)">
	<g id="Group_6161" transform="translate(723 456)">
		<g id="Group_6154" transform="translate(311.147 0)">
			<path id="Path_3988" class="st0" d="M669.82,534.48c36.32-27.06,18.91-39.4,5.39-49.76c-12.43-8.61-29.55-17.74-53.49-30.04
				c26.02,27.71,46.91,64.63,4.97,108.45"/>
			<path id="Path_3989" class="st1" d="M500.7,638.08c187.39-99.56,195.18-150.69-37.74-281
				c73.96,63.65,111.62,102.45,112.93,149.26c1.18,42.18-18.15,84.82-227.89,216.58L500.7,638.08z"/>
		</g>
		<g id="Group_6158" transform="translate(0 19.013)">
			<g id="Group_6104">
				<g id="Group_5944">
					<g>
						<g class="st2">
							<path class="st3" d="M83.89,525.96h16.24v-81.21H83.89v-16.24h48.72v16.24h-16.24v81.21h16.24v16.24H83.89V525.96z"/>
							<path class="st3" d="M152.1,461h16.24v10.72l7.63-10.72h28.42l24.36,28.42v52.78h-16.24v-46.45l-15.92-18.68h-12.67
								l-15.59,18.68v46.45H152.1V461z"/>
							<path class="st3" d="M286.9,543.5c-14.29,0-25.12-3.55-32.48-10.64c-7.36-7.09-11.04-17.51-11.04-31.26
								c0-13.75,3.68-24.17,11.04-31.26c7.36-7.09,18.19-10.64,32.48-10.64c12.67,0,22.28,3.55,28.83,10.64
								c6.55,7.09,9.83,17.52,9.83,31.26c0,13.75-3.28,24.17-9.83,31.26C309.18,539.96,299.57,543.5,286.9,543.5z M247.76,554.87
								l9.91-11.69l12.83,15.27h36.38l7.31-8.61V461h16.24v94.85l-15.92,18.84h-50.02L247.76,554.87z M286.9,527.26
								c8.99,0,15.78-2.17,20.38-6.5c4.6-4.33,6.9-10.72,6.9-19.17s-2.3-14.83-6.9-19.17c-4.6-4.33-11.4-6.5-20.38-6.5
								c-8.99,0-15.78,2.17-20.38,6.5c-4.6,4.33-6.9,10.72-6.9,19.17s2.3,14.84,6.9,19.17C271.12,525.1,277.92,527.26,286.9,527.26z
								"/>
							<path class="st3" d="M348.3,521.42v-15.75c0-15.16,3.49-26.61,10.48-34.35c6.98-7.74,17.24-11.61,30.78-11.61
								c13.53,0,23.79,3.63,30.78,10.88c6.98,7.26,10.48,17.97,10.48,32.16v6.98h-66.27v5.36l9.1,10.88h31.35l9.42-11.37
								l10.72,12.83l-12.34,14.78h-46.94L348.3,521.42z M412.94,493.48c0-5.74-1.98-10.1-5.93-13.07
								c-3.95-2.98-9.77-4.47-17.46-4.47c-7.69,0-13.51,1.49-17.46,4.47c-3.95,2.98-5.93,7.34-5.93,13.07H412.94z"/>
							<path class="st3" d="M447.04,461h16.24v10.72l7.63-10.72h28.42l24.36,28.42v52.78h-16.24v-46.45l-15.92-18.68h-12.67
								l-15.59,18.68v46.45h-16.24V461z"/>
							<path class="st3" d="M538.32,525.96h12.99V461h16.24v64.97h12.99v16.24h-42.23V525.96z M559.43,448.65
								c-3.03,0-5.68-1.11-7.96-3.33c-2.27-2.22-3.41-4.84-3.41-7.88c0-3.14,1.14-5.85,3.41-8.12c2.27-2.27,4.93-3.41,7.96-3.41
								c3.14,0,5.85,1.14,8.12,3.41c2.27,2.27,3.41,4.98,3.41,8.12c0,3.03-1.14,5.66-3.41,7.88
								C565.28,447.55,562.57,448.65,559.43,448.65z"/>
							<path class="st3" d="M671.82,542.2h-16.24v-10.72l-7.63,10.72h-28.42l-24.36-28.42V461h16.24v46.45l15.92,18.68h12.67
								l15.59-18.68V461h16.24V542.2z"/>
							<path class="st3" d="M689.68,526.45l10.72-12.67l9.91,12.18h35.89l3.09-3.57v-9.26l-2.76-3.41h-41.09l-12.34-14.62v-19.49
								L705.28,461h47.1l14.45,17.22l-10.39,12.51l-11.37-13.48h-32.32l-3.41,4.39v7.47l3.41,4.39H754l11.53,13.64v21.28
								l-11.86,13.81h-51.16L689.68,526.45z"/>
						</g>
					</g>
				</g>
				<circle id="Ellipse_105" class="st4" cx="559.44" cy="438.63" r="13.87"/>
			</g>
		</g>
	</g>
</g>
</svg>
